<svg width="47" height="63" viewBox="0 0 47 63" fill="none" xmlns="http://www.w3.org/2000/svg">
<path d="M33.2916 47.25C34.4666 43.3248 36.9023 39.9779 39.3135 36.6434C39.9499 35.7697 40.5864 34.8961 41.1984 34.0102C43.6218 30.5033 45.0416 26.2582 45.0416 21.6686C45.0416 9.69609 35.3968 0 23.4999 0C11.603 0 1.95825 9.69609 1.95825 21.6562C1.95825 26.2459 3.37804 30.5033 5.80148 33.9978C6.41346 34.8838 7.04992 35.7574 7.68638 36.6311C10.1098 39.9656 12.5455 43.3248 13.7083 47.2377H33.2916V47.25ZM23.4999 63C28.9098 63 33.2916 58.5949 33.2916 53.1562V51.1875H13.7083V53.1562C13.7083 58.5949 18.09 63 23.4999 63ZM13.7083 21.6562C13.7083 22.7391 12.827 23.625 11.7499 23.625C10.6728 23.625 9.79159 22.7391 9.79159 21.6562C9.79159 14.0396 15.9236 7.875 23.4999 7.875C24.577 7.875 25.4583 8.76094 25.4583 9.84375C25.4583 10.9266 24.577 11.8125 23.4999 11.8125C18.09 11.8125 13.7083 16.2176 13.7083 21.6562Z" fill="black"/>
</svg>
