<svg width="143" height="164" viewBox="0 0 143 164" fill="none" xmlns="http://www.w3.org/2000/svg">
<path d="M71.5 82C82.336 82 92.7282 77.6804 100.39 69.9914C108.053 62.3024 112.357 51.8739 112.357 41C112.357 30.1261 108.053 19.6976 100.39 12.0086C92.7282 4.31963 82.336 0 71.5 0C60.664 0 50.2718 4.31963 42.6096 12.0086C34.9474 19.6976 30.6429 30.1261 30.6429 41C30.6429 51.8739 34.9474 62.3024 42.6096 69.9914C50.2718 77.6804 60.664 82 71.5 82ZM56.9127 97.375C25.4719 97.375 0 122.936 0 154.487C0 159.74 4.24531 164 9.48013 164H133.52C138.755 164 143 159.74 143 154.487C143 122.936 117.528 97.375 86.0873 97.375H56.9127Z" fill="black"/>
</svg>
