<svg width="71" height="63" viewBox="0 0 71 63" fill="none" xmlns="http://www.w3.org/2000/svg">
<path d="M0 9.84375V15.75C0 17.9279 1.76267 19.6875 3.94444 19.6875H5.91667H11.8333V9.84375C11.8333 6.58301 9.18316 3.9375 5.91667 3.9375C2.65017 3.9375 0 6.58301 0 9.84375ZM13.8056 3.9375C15.0382 5.58633 15.7778 7.62891 15.7778 9.84375V47.25C15.7778 51.5936 19.3155 55.125 23.6667 55.125C28.0179 55.125 31.5556 51.5936 31.5556 47.25V46.5979C31.5556 42.6111 34.7974 39.375 38.7911 39.375H59.1667V15.75C59.1667 9.22852 53.8663 3.9375 47.3333 3.9375H13.8056ZM57.1944 59.0625C64.8245 59.0625 71 52.8979 71 45.2812C71 44.1984 70.1125 43.3125 69.0278 43.3125H38.7911C36.9792 43.3125 35.5 44.7768 35.5 46.5979V47.25C35.5 53.7715 30.1997 59.0625 23.6667 59.0625H45.3611H57.1944Z" fill="black"/>
</svg>
