<svg width="67" height="59" viewBox="0 0 67 59" fill="none" xmlns="http://www.w3.org/2000/svg">
<g clip-path="url(#clip0_0_897)">
<path d="M66.9768 29.4424C66.9768 31.5166 65.232 33.1414 63.2546 33.1414H59.5324L59.6138 51.602C59.6138 51.9131 59.5905 52.2242 59.5556 52.5354V54.4022C59.5556 56.9488 57.4735 59.0115 54.9029 59.0115H53.0418C52.9138 59.0115 52.7859 59.0115 52.6579 59C52.4951 59.0115 52.3322 59.0115 52.1694 59.0115L48.389 59H45.5973C43.0266 59 40.9445 56.9373 40.9445 54.3906V51.625V44.25C40.9445 42.2104 39.2812 40.5625 37.2223 40.5625H29.7779C27.719 40.5625 26.0556 42.2104 26.0556 44.25V51.625V54.3906C26.0556 56.9373 23.9735 59 21.4029 59H18.6112H14.9006C14.7261 59 14.5517 58.9885 14.3772 58.977C14.2376 58.9885 14.098 59 13.9584 59H12.0973C9.52665 59 7.44453 56.9373 7.44453 54.3906V41.4844C7.44453 41.3807 7.44453 41.2654 7.45616 41.1617V33.1299H3.73394C1.64019 33.1299 0.0117188 31.5166 0.0117188 29.4309C0.0117188 28.3938 0.360677 27.4719 1.17491 26.6652L30.9876 0.921875C31.8018 0.115234 32.7324 0 33.5466 0C34.3609 0 35.2914 0.230469 35.9893 0.806641L65.6973 26.6768C66.6279 27.4834 67.0931 28.4053 66.9768 29.4424Z" fill="black"/>
</g>
<defs>
<clipPath id="clip0_0_897">
<rect width="67" height="59" fill="white"/>
</clipPath>
</defs>
</svg>
